<svg xmlns="http://www.w3.org/2000/svg" viewBox="0 0 1400 300" fill="none">
  <title>Edab Studios Corporate Logo</title>
  <desc>Corporate wordmark for Edab Studios with a pink accent on the i and underline.</desc>
  <path d="M 479.71 187.81 L 479.71 100.98 L 520.28 100.98 L 520.28 106.49 L 485.7 106.49 L 485.7 141.31 L 517.79 141.31 L 517.79 146.76 L 485.7 146.76 L 485.7 182.36 L 522.28 182.36 L 522.28 187.81 Z M 584.52 187.81 L 584.52 176.55 L 584.28 176.55 C 582.26 180.46 579.27 183.57 575.31 185.87 C 571.36 188.17 566.9 189.32 561.93 189.32 C 554.3 189.32 548.08 186.54 543.25 180.97 C 538.43 175.4 536.02 167.71 536.02 157.9 C 536.02 147.89 538.65 139.78 543.92 133.59 C 549.19 127.39 556.02 124.29 564.42 124.29 C 573.7 124.29 580.32 128.11 584.28 135.74 L 584.52 135.74 L 584.52 96.02 L 590.09 96.02 L 590.09 187.81 Z M 584.52 150.09 C 584.52 144.32 582.69 139.42 579.04 135.41 C 575.38 131.39 570.47 129.38 564.29 129.38 C 557.8 129.38 552.43 131.87 548.19 136.86 C 543.95 141.84 541.83 148.7 541.83 157.41 C 541.83 165.97 543.74 172.58 547.55 177.24 C 551.37 181.91 556.28 184.24 562.3 184.24 C 569.36 184.24 574.83 182.05 578.7 177.67 C 582.58 173.29 584.52 167.95 584.52 161.65 Z M 647 187.81 L 647 175.4 L 646.76 175.4 C 644.78 179.63 641.91 183.02 638.13 185.54 C 634.36 188.06 630.17 189.32 625.57 189.32 C 619.67 189.32 615.01 187.67 611.58 184.36 C 608.15 181.05 606.44 176.87 606.44 171.82 C 606.44 161.01 613.6 154.47 627.93 152.21 L 647 149.36 C 647 136.04 642 129.38 631.99 129.38 C 625.16 129.38 618.52 132.13 612.07 137.62 L 612.07 130.89 C 614.37 129.08 617.49 127.52 621.42 126.23 C 625.36 124.94 629.06 124.29 632.53 124.29 C 638.91 124.29 643.84 126.27 647.33 130.23 C 650.83 134.18 652.57 139.94 652.57 147.48 L 652.57 187.81 Z M 629.93 156.93 C 623.43 157.86 618.87 159.36 616.24 161.44 C 613.62 163.52 612.31 166.9 612.31 171.58 C 612.31 175.26 613.53 178.28 615.97 180.66 C 618.41 183.05 621.81 184.24 626.17 184.24 C 632.15 184.24 637.11 182.03 641.07 177.61 C 645.02 173.19 647 167.49 647 160.5 L 647 154.45 Z M 677.03 176.79 L 676.79 176.79 L 676.79 187.81 L 671.22 187.81 L 671.22 96.02 L 676.79 96.02 L 676.79 138.58 L 677.03 138.58 C 679.25 134.02 682.43 130.5 686.57 128.02 C 690.71 125.54 695.26 124.29 700.22 124.29 C 708.09 124.29 714.24 127.01 718.66 132.44 C 723.08 137.87 725.29 145.24 725.29 154.57 C 725.29 164.94 722.73 173.33 717.6 179.73 C 712.47 186.12 705.81 189.32 697.62 189.32 C 688.34 189.32 681.47 185.14 677.03 176.79 Z M 676.79 153.72 L 676.79 161.53 C 676.79 167.75 678.75 173.09 682.66 177.55 C 686.58 182.01 691.73 184.24 698.1 184.24 C 704.44 184.24 709.59 181.52 713.54 176.09 C 717.5 170.66 719.48 163.53 719.48 154.69 C 719.48 146.94 717.66 140.78 714.03 136.22 C 710.39 131.66 705.55 129.38 699.5 129.38 C 692.27 129.38 686.68 131.8 682.72 136.65 C 678.77 141.49 676.79 147.18 676.79 153.72 Z" fill="#F8FAFC"/>
  <path d="M 746.95 179.36 L 746.95 175.94 C 750.06 177.92 753.2 178.91 756.39 178.91 C 759.78 178.91 762.36 178.2 764.11 176.8 C 765.87 175.4 766.75 173.44 766.75 170.91 C 766.75 168.69 766.16 166.92 764.98 165.6 C 763.8 164.28 761.24 162.48 757.3 160.2 C 752.9 157.63 750.12 155.49 748.95 153.76 C 747.78 152.04 747.19 150.05 747.19 147.79 C 747.19 144.72 748.38 142.11 750.76 139.97 C 753.14 137.84 756.32 136.77 760.3 136.77 C 762.88 136.77 765.47 137.2 768.05 138.07 L 768.05 141.22 C 765.51 140.07 762.79 139.49 759.91 139.49 C 756.96 139.49 754.62 140.24 752.9 141.73 C 751.17 143.22 750.31 145.12 750.31 147.42 C 750.31 149.64 750.9 151.41 752.08 152.72 C 753.26 154.03 755.81 155.82 759.72 158.08 C 763.78 160.38 766.48 162.42 767.82 164.21 C 769.16 165.99 769.83 168.05 769.83 170.37 C 769.83 173.7 768.68 176.41 766.37 178.51 C 764.06 180.61 760.79 181.66 756.58 181.66 C 755.08 181.66 753.36 181.43 751.41 180.96 C 749.47 180.5 747.98 179.97 746.95 179.36 Z M 790.78 180.48 C 789.33 181.17 787.97 181.51 786.7 181.51 C 782.12 181.51 779.82 178.77 779.83 173.28 L 779.83 152.45 L 774.25 152.45 L 774.25 149.9 L 779.83 149.9 L 779.83 141.85 C 780.27 141.69 780.73 141.53 781.22 141.37 C 781.7 141.23 782.17 141.07 782.61 140.91 L 782.61 149.9 L 790.78 149.9 L 790.78 152.45 L 782.61 152.45 L 782.61 172.91 C 782.61 175.05 782.95 176.6 783.62 177.56 C 784.3 178.52 785.45 179 787.06 179 C 788.21 179 789.45 178.62 790.78 177.88 Z M 817.39 180.9 L 817.39 175.27 L 817.27 175.27 C 815.11 179.53 811.78 181.66 807.28 181.66 C 799.96 181.66 796.29 177.05 796.29 167.83 L 796.29 149.9 L 799.11 149.9 L 799.11 167.13 C 799.11 171.33 799.8 174.38 801.18 176.27 C 802.57 178.17 804.74 179.12 807.71 179.12 C 810.59 179.12 812.93 178.06 814.72 175.94 C 816.5 173.82 817.39 170.99 817.39 167.46 L 817.39 149.9 L 820.18 149.9 L 820.18 180.9 Z M 852.12 180.9 L 852.12 175.27 L 852 175.27 C 850.99 177.23 849.49 178.79 847.52 179.94 C 845.54 181.09 843.31 181.66 840.83 181.66 C 837.01 181.66 833.9 180.27 831.49 177.48 C 829.07 174.7 827.87 170.85 827.87 165.95 C 827.87 160.94 829.19 156.89 831.82 153.79 C 834.45 150.7 837.87 149.15 842.07 149.15 C 846.71 149.15 850.02 151.05 852 154.87 L 852.12 154.87 L 852.12 135.01 L 854.9 135.01 L 854.9 180.9 Z M 852.12 162.04 C 852.12 159.16 851.2 156.71 849.38 154.7 C 847.55 152.69 845.09 151.69 842.01 151.69 C 838.76 151.69 836.07 152.94 833.95 155.43 C 831.83 157.92 830.78 161.35 830.78 165.71 C 830.78 169.99 831.73 173.29 833.64 175.62 C 835.54 177.95 838 179.12 841.01 179.12 C 844.54 179.12 847.27 178.02 849.21 175.83 C 851.15 173.64 852.12 170.97 852.12 167.83 Z" fill="#F8FAFC"/>
  <path d="M 864.83 180.9 L 864.83 149.9 L 867.62 149.9 L 867.62 180.9 Z" fill="#F8FAFC"/>
  <path d="M 889.99 181.66 C 885.47 181.66 881.89 180.17 879.26 177.2 C 876.62 174.22 875.3 170.35 875.3 165.59 C 875.3 160.44 876.68 156.41 879.44 153.51 C 882.19 150.6 885.82 149.15 890.32 149.15 C 894.74 149.15 898.23 150.59 900.79 153.48 C 903.36 156.36 904.64 160.36 904.64 165.46 C 904.64 170.29 903.33 174.19 900.72 177.18 C 898.11 180.17 894.53 181.66 889.99 181.66 Z M 890.2 151.69 C 886.55 151.69 883.63 152.92 881.47 155.38 C 879.3 157.85 878.21 161.27 878.21 165.65 C 878.21 169.7 879.27 172.96 881.39 175.42 C 883.51 177.89 886.4 179.12 890.08 179.12 C 893.81 179.12 896.69 177.91 898.71 175.49 C 900.72 173.06 901.73 169.7 901.73 165.4 C 901.73 160.98 900.73 157.59 898.72 155.23 C 896.71 152.87 893.87 151.69 890.2 151.69 Z M 910.72 179.54 L 910.72 176.18 C 911.77 177.09 913.05 177.81 914.54 178.33 C 916.03 178.86 917.32 179.12 918.41 179.12 C 923.28 179.12 925.71 177.13 925.71 173.15 C 925.71 171.78 925.18 170.61 924.11 169.64 C 923.04 168.67 921.3 167.67 918.9 166.65 C 915.93 165.35 913.85 164.02 912.65 162.63 C 911.45 161.25 910.85 159.57 910.85 157.59 C 910.85 155.07 911.81 153.03 913.74 151.48 C 915.66 149.92 918.04 149.15 920.87 149.15 C 923.53 149.15 925.81 149.69 927.71 150.78 L 927.71 153.93 C 925.41 152.44 923.03 151.69 920.56 151.69 C 918.53 151.69 916.88 152.22 915.63 153.28 C 914.38 154.34 913.75 155.72 913.75 157.41 C 913.75 158.89 914.15 160.08 914.93 161 C 915.72 161.92 917.46 162.97 920.14 164.16 C 923.37 165.62 925.59 166.96 926.8 168.2 C 928.01 169.45 928.62 171.1 928.62 173.15 C 928.62 175.62 927.69 177.65 925.85 179.25 C 924 180.86 921.45 181.66 918.2 181.66 C 915.22 181.66 912.72 180.95 910.72 179.54 Z" fill="#F8FAFC"/>
  <circle cx="866.22" cy="130" r="7" fill="#DF59B6"/>
  <rect x="759.72" y="193" width="154.73" height="4" fill="#DF59B6"/>
</svg>
